M48
;GenerationSoftware,Autodesk,EAGLE,9.5.2*%
;CreationDate,2020-02-23T14:38:32Z*%
FMAT,2
ICI,OFF
METRIC,TZ,000.000
T9C0.350
T8C0.800
T7C0.813
T6C1.016
T5C1.150
T4C1.170
T3C1.194
T2C1.300
T1C2.800
%
G90
M71
T1
X4128Y23812
X71438Y95885
X71438Y23812
X4128Y95885
T2
X18160Y66375
X24827Y66375
T3
X46672Y24447
X58102Y24447
X63182Y24447
X70803Y53022
X36513Y24447
X70803Y58102
X31432Y24447
X11112Y24447
X16192Y24447
X70803Y32067
X70803Y37148
X4763Y58420
X21273Y24447
X4763Y53340
X26352Y24447
X70803Y42228
X70803Y47307
X41593Y24447
T4
X20320Y63835
X20320Y66375
X26987Y63835
X26987Y61295
X20320Y68915
X26987Y68915
X20320Y61295
X26987Y66375
T5
X38735Y96520
X61595Y96520
X61595Y93980
X59055Y96520
X59055Y93980
X56515Y96520
X53975Y96520
X53975Y93980
X51435Y96520
X51435Y93980
X48895Y96520
X48895Y93980
X46355Y96520
X46355Y93980
X43815Y96520
X43815Y93980
X41275Y96520
X41275Y93980
X38735Y93980
X36195Y96520
X36195Y93980
X33655Y96520
X33655Y93980
X31115Y96520
X31115Y93980
X28575Y96520
X28575Y93980
X26035Y96520
X26035Y93980
X23495Y96520
X23495Y93980
X20955Y96520
X20955Y93980
X18415Y96520
X18415Y93980
X15875Y96520
X15875Y93980
X13335Y96520
X13335Y93980
X9808Y41498
X7267Y41498
X12347Y41498
X56515Y93980
T6
X28575Y83185
X28575Y80645
X5398Y63182
X5398Y65723
X5398Y68263
X28575Y85725
X61277Y54292
X61277Y56832
X52387Y23177
X52387Y25717
X52387Y28257
T7
X41783Y43815
X36957Y43815
T8
X2223Y45545
X2223Y41545
X2223Y39545
X2223Y43545
T9
X32500Y59000
X8750Y51250
X8500Y81500
X5500Y84250
X41000Y33750
X27250Y46750
X18000Y46750
X17250Y33750
X39370Y44926
X60000Y86000
X20250Y57000
X2223Y84773
X2223Y76518
X65750Y92250
X63500Y90000
X18000Y39000
X16500Y41250
X21590Y86360
X60500Y90250
X21590Y74930
X38418Y83503
X43498Y69533
X47942Y40958
X57467Y45085
X54610Y57467
X55880Y74613
X59055Y74613
X44750Y85250
X60960Y74613
X64135Y74613
X60960Y80963
X64135Y80963
X51752Y47307
X15875Y78740
X13017Y70803
X46355Y56197
X55880Y80963
X59055Y80963
X46250Y54750
X37500Y53250
X24500Y52750
X57500Y68750
X62500Y68750
X63250Y69500
X54500Y71000
X42250Y77250
X48500Y47000
X30000Y56250
X31750Y42250
X16000Y76000
X35000Y88250
X14750Y59250
X62500Y85250
X15750Y70750
X47500Y83750
X49500Y43750
X67750Y82750
X25500Y51750
X48500Y76500
X53000Y81000
X55500Y83500
X67310Y63817
X2223Y49212
X70168Y63817
X37465Y59055
X54250Y87250
X47942Y81598
X39250Y79250
X39500Y74500
X51117Y59690
X53657Y83503
X10160Y49212
X14605Y49212
X39053Y54395
X41275Y52387
X49847Y59690
X51117Y83503
X10160Y50165
X14605Y50165
X39688Y55245
X42228Y52705
X51000Y87250
X53000Y90250
X54000Y49250
X53250Y48750
M30