G04 EAGLE Gerber RS-274X export*
G75*
%MOMM*%
%FSLAX34Y34*%
%LPD*%
%IN*%
%IPPOS*%
%AMOC8*
5,1,8,0,0,1.08239X$1,22.5*%
G01*
%ADD10C,0.254000*%


D10*
X0Y200025D02*
X755000Y200025D01*
X755000Y1000000D01*
X0Y1000000D01*
X0Y200025D01*
X181281Y657250D02*
X180645Y657313D01*
X180019Y657437D01*
X179408Y657623D01*
X178818Y657867D01*
X178254Y658168D01*
X177723Y658523D01*
X177230Y658928D01*
X176778Y659380D01*
X176373Y659873D01*
X176018Y660404D01*
X175717Y660968D01*
X175473Y661558D01*
X175287Y662169D01*
X175163Y662795D01*
X175100Y663431D01*
X175100Y664069D01*
X175163Y664705D01*
X175287Y665331D01*
X175473Y665942D01*
X175717Y666532D01*
X176018Y667096D01*
X176373Y667627D01*
X176778Y668120D01*
X177230Y668572D01*
X177723Y668977D01*
X178254Y669332D01*
X178818Y669633D01*
X179408Y669877D01*
X180019Y670063D01*
X180645Y670187D01*
X181281Y670250D01*
X181919Y670250D01*
X182555Y670187D01*
X183181Y670063D01*
X183792Y669877D01*
X184382Y669633D01*
X184946Y669332D01*
X185477Y668977D01*
X185970Y668572D01*
X186422Y668120D01*
X186827Y667627D01*
X187182Y667096D01*
X187483Y666532D01*
X187727Y665942D01*
X187913Y665331D01*
X188037Y664705D01*
X188100Y664069D01*
X188100Y663431D01*
X188037Y662795D01*
X187913Y662169D01*
X187727Y661558D01*
X187483Y660968D01*
X187182Y660404D01*
X186827Y659873D01*
X186422Y659380D01*
X185970Y658928D01*
X185477Y658523D01*
X184946Y658168D01*
X184382Y657867D01*
X183792Y657623D01*
X183181Y657437D01*
X182555Y657313D01*
X181919Y657250D01*
X181281Y657250D01*
X247956Y657250D02*
X247320Y657313D01*
X246694Y657437D01*
X246083Y657623D01*
X245493Y657867D01*
X244929Y658168D01*
X244398Y658523D01*
X243905Y658928D01*
X243453Y659380D01*
X243048Y659873D01*
X242693Y660404D01*
X242392Y660968D01*
X242148Y661558D01*
X241962Y662169D01*
X241838Y662795D01*
X241775Y663431D01*
X241775Y664069D01*
X241838Y664705D01*
X241962Y665331D01*
X242148Y665942D01*
X242392Y666532D01*
X242693Y667096D01*
X243048Y667627D01*
X243453Y668120D01*
X243905Y668572D01*
X244398Y668977D01*
X244929Y669332D01*
X245493Y669633D01*
X246083Y669877D01*
X246694Y670063D01*
X247320Y670187D01*
X247956Y670250D01*
X248594Y670250D01*
X249230Y670187D01*
X249856Y670063D01*
X250467Y669877D01*
X251057Y669633D01*
X251621Y669332D01*
X252152Y668977D01*
X252645Y668572D01*
X253097Y668120D01*
X253502Y667627D01*
X253857Y667096D01*
X254158Y666532D01*
X254402Y665942D01*
X254588Y665331D01*
X254712Y664705D01*
X254775Y664069D01*
X254775Y663431D01*
X254712Y662795D01*
X254588Y662169D01*
X254402Y661558D01*
X254158Y660968D01*
X253857Y660404D01*
X253502Y659873D01*
X253097Y659380D01*
X252645Y658928D01*
X252152Y658523D01*
X251621Y658168D01*
X251057Y657867D01*
X250467Y657623D01*
X249856Y657437D01*
X249230Y657313D01*
X248594Y657250D01*
X247956Y657250D01*
M02*
