G04 EAGLE Gerber RS-274X export*
G75*
%MOMM*%
%FSLAX34Y34*%
%LPD*%
%INSolderpaste Bottom*%
%IPPOS*%
%AMOC8*
5,1,8,0,0,1.08239X$1,22.5*%
G01*
%ADD10R,1.800000X1.600000*%
%ADD11R,1.600000X1.800000*%
%ADD12R,1.803000X1.600000*%
%ADD13R,1.600000X1.803000*%
%ADD14R,1.600200X1.168400*%
%ADD15R,0.650000X1.650000*%


D10*
X479425Y427325D03*
X479425Y455325D03*
D11*
X382300Y473075D03*
X354300Y473075D03*
X405100Y473075D03*
X433100Y473075D03*
X99725Y390525D03*
X71725Y390525D03*
D12*
X647700Y938280D03*
X647700Y966720D03*
X517525Y458855D03*
X517525Y487295D03*
D13*
X446020Y304800D03*
X417580Y304800D03*
D12*
X555625Y458855D03*
X555625Y487295D03*
D13*
X325370Y546100D03*
X296930Y546100D03*
X99945Y841375D03*
X71505Y841375D03*
X211070Y450850D03*
X182630Y450850D03*
D12*
X390525Y306455D03*
X390525Y334895D03*
X187325Y306455D03*
X187325Y334895D03*
X85725Y658745D03*
X85725Y630305D03*
D13*
X239780Y450850D03*
X268220Y450850D03*
D14*
X509588Y902970D03*
X509588Y887730D03*
X544513Y902970D03*
X544513Y887730D03*
D15*
X546100Y794000D03*
X558800Y794000D03*
X558800Y730000D03*
X546100Y730000D03*
X577850Y794000D03*
X590550Y794000D03*
X590550Y730000D03*
X577850Y730000D03*
X654050Y730000D03*
X641350Y730000D03*
X641350Y794000D03*
X654050Y794000D03*
X622300Y730000D03*
X609600Y730000D03*
X609600Y794000D03*
X622300Y794000D03*
D13*
X249170Y568325D03*
X220730Y568325D03*
X211070Y412750D03*
X182630Y412750D03*
X211070Y374650D03*
X182630Y374650D03*
D11*
X297150Y520700D03*
X325150Y520700D03*
D10*
X171450Y773400D03*
X171450Y801400D03*
D11*
X297150Y495300D03*
X325150Y495300D03*
D10*
X146050Y801400D03*
X146050Y773400D03*
D11*
X503525Y552450D03*
X531525Y552450D03*
X503525Y577850D03*
X531525Y577850D03*
M02*
