G04 EAGLE Gerber RS-274X export*
G75*
%MOMM*%
%FSLAX34Y34*%
%LPD*%
%INSoldermask Top*%
%IPPOS*%
%AMOC8*
5,1,8,0,0,1.08239X$1,22.5*%
G01*
%ADD10C,1.693800*%
%ADD11R,1.500000X1.500000*%
%ADD12R,1.270000X2.540000*%
%ADD13R,3.430000X0.890000*%
%ADD14C,1.770000*%
%ADD15C,1.300000*%
%ADD16C,5.334000*%
%ADD17R,0.800000X2.000000*%
%ADD18R,2.000000X0.800000*%
%ADD19R,1.000000X1.800000*%
%ADD20R,0.650000X1.850000*%
%ADD21R,1.528000X0.650000*%
%ADD22R,0.650000X1.528000*%
%ADD23C,1.516000*%
%ADD24R,1.725000X1.725000*%
%ADD25C,1.725000*%
%ADD26R,0.800000X1.200000*%
%ADD27R,1.300000X1.300000*%
%ADD28C,1.750000*%
%ADD29C,1.312800*%
%ADD30R,1.600000X1.803000*%


D10*
X212725Y236006D02*
X212725Y252944D01*
X263525Y252944D02*
X263525Y236006D01*
D11*
X236500Y374650D03*
X271500Y374650D03*
D10*
X699556Y422275D02*
X716494Y422275D01*
X716494Y473075D02*
X699556Y473075D01*
X415925Y252944D02*
X415925Y236006D01*
X466725Y236006D02*
X466725Y252944D01*
D12*
X358775Y676275D03*
X384175Y676275D03*
X409575Y676275D03*
X434975Y676275D03*
X460375Y676275D03*
X485775Y676275D03*
X511175Y676275D03*
X536575Y676275D03*
X561975Y676275D03*
X587375Y676275D03*
X612775Y676275D03*
X638175Y676275D03*
X663575Y676275D03*
X688975Y676275D03*
X714375Y676275D03*
X714375Y854075D03*
X688975Y854075D03*
X663575Y854075D03*
X638175Y854075D03*
X612775Y854075D03*
X587375Y854075D03*
X561975Y854075D03*
X536575Y854075D03*
X511175Y854075D03*
X485775Y854075D03*
X460375Y854075D03*
X434975Y854075D03*
X409575Y854075D03*
X384175Y854075D03*
X358775Y854075D03*
D10*
X581025Y252944D02*
X581025Y236006D01*
X631825Y236006D02*
X631825Y252944D01*
D11*
X590550Y442950D03*
X590550Y407950D03*
X214350Y374650D03*
X179350Y374650D03*
X214350Y412750D03*
X179350Y412750D03*
D10*
X699556Y530225D02*
X716494Y530225D01*
X716494Y581025D02*
X699556Y581025D01*
D13*
X523875Y388375D03*
X523875Y341875D03*
D14*
X203200Y689150D03*
X203200Y663750D03*
X203200Y638350D03*
X203200Y612950D03*
D15*
X181600Y663750D03*
D14*
X269875Y689150D03*
X269875Y663750D03*
X269875Y638350D03*
X269875Y612950D03*
D15*
X248275Y663750D03*
D16*
X41275Y238125D03*
X41275Y958850D03*
X714375Y238125D03*
X714375Y958850D03*
D17*
X49550Y742450D03*
X61550Y742450D03*
X73550Y742450D03*
X85550Y742450D03*
X97550Y742450D03*
X109550Y742450D03*
X121550Y742450D03*
X133550Y742450D03*
X145550Y742450D03*
X157550Y742450D03*
X169550Y742450D03*
X181550Y742450D03*
X181550Y870450D03*
X169550Y870450D03*
X157550Y870450D03*
X145550Y870450D03*
X133550Y870450D03*
X121550Y870450D03*
X109550Y870450D03*
X97550Y870450D03*
X85550Y870450D03*
X73550Y870450D03*
X61550Y870450D03*
X49550Y870450D03*
D18*
X206550Y837450D03*
X206550Y775450D03*
X206550Y847450D03*
X206550Y824450D03*
X206550Y812450D03*
X206550Y800450D03*
X206550Y788450D03*
X206550Y765450D03*
D19*
X202550Y750450D03*
X12550Y750450D03*
X202550Y862450D03*
X12550Y862450D03*
D20*
X311150Y480300D03*
X323850Y480300D03*
X336550Y480300D03*
X349250Y480300D03*
X361950Y480300D03*
X374650Y480300D03*
X387350Y480300D03*
X400050Y480300D03*
X412750Y480300D03*
X412750Y573800D03*
X400050Y573800D03*
X387350Y573800D03*
X374650Y573800D03*
X361950Y573800D03*
X349250Y573800D03*
X336550Y573800D03*
X323850Y573800D03*
X311150Y573800D03*
D21*
X477715Y574675D03*
X477715Y561975D03*
X477715Y549275D03*
X477715Y536575D03*
X531935Y536575D03*
X531935Y549275D03*
X531935Y561975D03*
X531935Y574675D03*
D22*
X536575Y509710D03*
X523875Y509710D03*
X511175Y509710D03*
X498475Y509710D03*
X498475Y455490D03*
X511175Y455490D03*
X523875Y455490D03*
X536575Y455490D03*
D11*
X390525Y303175D03*
X390525Y338175D03*
D10*
X314325Y252944D02*
X314325Y236006D01*
X365125Y236006D02*
X365125Y252944D01*
D23*
X293330Y857250D02*
X278170Y857250D01*
X278170Y831850D02*
X293330Y831850D01*
X293330Y806450D02*
X278170Y806450D01*
D24*
X615950Y965200D03*
D25*
X615950Y939800D03*
X590550Y965200D03*
X590550Y939800D03*
X565150Y965200D03*
X565150Y939800D03*
X539750Y965200D03*
X539750Y939800D03*
X514350Y965200D03*
X514350Y939800D03*
X488950Y965200D03*
X488950Y939800D03*
X463550Y965200D03*
X463550Y939800D03*
X438150Y965200D03*
X438150Y939800D03*
X412750Y965200D03*
X412750Y939800D03*
X387350Y965200D03*
X387350Y939800D03*
X361950Y965200D03*
X361950Y939800D03*
X336550Y965200D03*
X336550Y939800D03*
X311150Y965200D03*
X311150Y939800D03*
X285750Y965200D03*
X285750Y939800D03*
X260350Y965200D03*
X260350Y939800D03*
X234950Y965200D03*
X234950Y939800D03*
X209550Y965200D03*
X209550Y939800D03*
X184150Y965200D03*
X184150Y939800D03*
X158750Y965200D03*
X158750Y939800D03*
X133350Y965200D03*
X133350Y939800D03*
D26*
X155575Y694325D03*
X130175Y694325D03*
X130175Y632825D03*
X155575Y632825D03*
D10*
X111125Y252944D02*
X111125Y236006D01*
X161925Y236006D02*
X161925Y252944D01*
D27*
X22225Y455450D03*
D15*
X22225Y435450D03*
X22225Y415450D03*
X22225Y395450D03*
D11*
X187325Y303175D03*
X187325Y338175D03*
X214350Y450850D03*
X179350Y450850D03*
X236500Y450850D03*
X271500Y450850D03*
D28*
X123475Y414975D03*
X98075Y414975D03*
X72675Y414975D03*
D29*
X417830Y438150D03*
X369570Y438150D03*
D30*
X550795Y428625D03*
X522355Y428625D03*
X560455Y384175D03*
X588895Y384175D03*
D11*
X236500Y412750D03*
X271500Y412750D03*
D23*
X61555Y631825D02*
X46395Y631825D01*
X46395Y657225D02*
X61555Y657225D01*
X61555Y682625D02*
X46395Y682625D01*
D10*
X699556Y320675D02*
X716494Y320675D01*
X716494Y371475D02*
X699556Y371475D01*
D11*
X252450Y568325D03*
X217450Y568325D03*
D23*
X605195Y542925D02*
X620355Y542925D01*
X620355Y568325D02*
X605195Y568325D01*
X531455Y231775D02*
X516295Y231775D01*
X516295Y257175D02*
X531455Y257175D01*
X531455Y282575D02*
X516295Y282575D01*
D10*
X56094Y584200D02*
X39156Y584200D01*
X39156Y533400D02*
X56094Y533400D01*
M02*
