G04 EAGLE Gerber RS-274X export*
G75*
%MOMM*%
%FSLAX34Y34*%
%LPD*%
%INSoldermask Bottom*%
%IPPOS*%
%AMOC8*
5,1,8,0,0,1.08239X$1,22.5*%
G01*
%ADD10C,1.693800*%
%ADD11R,1.800000X1.600000*%
%ADD12R,1.600000X1.800000*%
%ADD13C,1.770000*%
%ADD14C,1.300000*%
%ADD15C,5.334000*%
%ADD16C,1.516000*%
%ADD17R,1.725000X1.725000*%
%ADD18C,1.725000*%
%ADD19R,1.300000X1.300000*%
%ADD20C,1.750000*%
%ADD21C,1.312800*%
%ADD22R,1.803000X1.600000*%
%ADD23R,1.600000X1.803000*%
%ADD24R,1.600200X1.168400*%
%ADD25R,1.828800X0.152400*%
%ADD26R,0.650000X1.650000*%

G36*
X603274Y215155D02*
X603274Y215155D01*
X603299Y215152D01*
X603394Y215175D01*
X603491Y215190D01*
X603512Y215202D01*
X603536Y215208D01*
X603620Y215259D01*
X603706Y215305D01*
X603723Y215323D01*
X603744Y215336D01*
X603806Y215412D01*
X603873Y215484D01*
X603883Y215506D01*
X603899Y215525D01*
X603933Y215616D01*
X603974Y215706D01*
X603976Y215730D01*
X603985Y215753D01*
X603999Y215900D01*
X603999Y273050D01*
X603995Y273074D01*
X603998Y273099D01*
X603976Y273194D01*
X603960Y273291D01*
X603948Y273312D01*
X603942Y273336D01*
X603891Y273420D01*
X603845Y273506D01*
X603827Y273523D01*
X603814Y273544D01*
X603738Y273606D01*
X603667Y273673D01*
X603644Y273683D01*
X603625Y273699D01*
X603534Y273733D01*
X603444Y273774D01*
X603420Y273776D01*
X603397Y273785D01*
X603250Y273799D01*
X501650Y273799D01*
X501626Y273795D01*
X501601Y273798D01*
X501506Y273776D01*
X501409Y273760D01*
X501388Y273748D01*
X501364Y273742D01*
X501280Y273691D01*
X501194Y273645D01*
X501177Y273627D01*
X501156Y273614D01*
X501094Y273538D01*
X501027Y273467D01*
X501017Y273444D01*
X501002Y273425D01*
X500967Y273334D01*
X500926Y273244D01*
X500924Y273220D01*
X500915Y273197D01*
X500901Y273050D01*
X500901Y241300D01*
X500905Y241276D01*
X500902Y241251D01*
X500925Y241156D01*
X500940Y241059D01*
X500952Y241038D01*
X500958Y241014D01*
X501009Y240930D01*
X501055Y240844D01*
X501073Y240827D01*
X501086Y240806D01*
X501162Y240744D01*
X501234Y240677D01*
X501256Y240667D01*
X501275Y240652D01*
X501366Y240617D01*
X501456Y240576D01*
X501480Y240574D01*
X501503Y240565D01*
X501650Y240551D01*
X554876Y240551D01*
X554876Y215900D01*
X554880Y215876D01*
X554877Y215851D01*
X554900Y215756D01*
X554915Y215659D01*
X554927Y215638D01*
X554933Y215614D01*
X554984Y215530D01*
X555030Y215444D01*
X555048Y215427D01*
X555061Y215406D01*
X555137Y215344D01*
X555209Y215277D01*
X555231Y215267D01*
X555250Y215252D01*
X555341Y215217D01*
X555431Y215176D01*
X555455Y215174D01*
X555478Y215165D01*
X555625Y215151D01*
X603250Y215151D01*
X603274Y215155D01*
G37*
D10*
X212725Y236006D02*
X212725Y252944D01*
X263525Y252944D02*
X263525Y236006D01*
X699556Y422275D02*
X716494Y422275D01*
X716494Y473075D02*
X699556Y473075D01*
X415925Y252944D02*
X415925Y236006D01*
X466725Y236006D02*
X466725Y252944D01*
X581025Y252944D02*
X581025Y236006D01*
X631825Y236006D02*
X631825Y252944D01*
D11*
X479425Y427325D03*
X479425Y455325D03*
D12*
X382300Y473075D03*
X354300Y473075D03*
X405100Y473075D03*
X433100Y473075D03*
X99725Y390525D03*
X71725Y390525D03*
D10*
X699556Y530225D02*
X716494Y530225D01*
X716494Y581025D02*
X699556Y581025D01*
D13*
X203200Y689150D03*
X203200Y663750D03*
X203200Y638350D03*
X203200Y612950D03*
D14*
X181600Y663750D03*
D13*
X269875Y689150D03*
X269875Y663750D03*
X269875Y638350D03*
X269875Y612950D03*
D14*
X248275Y663750D03*
D15*
X41275Y238125D03*
X41275Y958850D03*
X714375Y238125D03*
X714375Y958850D03*
D10*
X314325Y252944D02*
X314325Y236006D01*
X365125Y236006D02*
X365125Y252944D01*
D16*
X293330Y857250D02*
X278170Y857250D01*
X278170Y831850D02*
X293330Y831850D01*
X293330Y806450D02*
X278170Y806450D01*
D17*
X615950Y965200D03*
D18*
X615950Y939800D03*
X590550Y965200D03*
X590550Y939800D03*
X565150Y965200D03*
X565150Y939800D03*
X539750Y965200D03*
X539750Y939800D03*
X514350Y965200D03*
X514350Y939800D03*
X488950Y965200D03*
X488950Y939800D03*
X463550Y965200D03*
X463550Y939800D03*
X438150Y965200D03*
X438150Y939800D03*
X412750Y965200D03*
X412750Y939800D03*
X387350Y965200D03*
X387350Y939800D03*
X361950Y965200D03*
X361950Y939800D03*
X336550Y965200D03*
X336550Y939800D03*
X311150Y965200D03*
X311150Y939800D03*
X285750Y965200D03*
X285750Y939800D03*
X260350Y965200D03*
X260350Y939800D03*
X234950Y965200D03*
X234950Y939800D03*
X209550Y965200D03*
X209550Y939800D03*
X184150Y965200D03*
X184150Y939800D03*
X158750Y965200D03*
X158750Y939800D03*
X133350Y965200D03*
X133350Y939800D03*
D10*
X111125Y252944D02*
X111125Y236006D01*
X161925Y236006D02*
X161925Y252944D01*
D19*
X22225Y455450D03*
D14*
X22225Y435450D03*
X22225Y415450D03*
X22225Y395450D03*
D20*
X123475Y414975D03*
X98075Y414975D03*
X72675Y414975D03*
D21*
X417830Y438150D03*
X369570Y438150D03*
D22*
X647700Y938280D03*
X647700Y966720D03*
X517525Y458855D03*
X517525Y487295D03*
D23*
X446020Y304800D03*
X417580Y304800D03*
D22*
X555625Y458855D03*
X555625Y487295D03*
D23*
X325370Y546100D03*
X296930Y546100D03*
X99945Y841375D03*
X71505Y841375D03*
X211070Y450850D03*
X182630Y450850D03*
D22*
X390525Y306455D03*
X390525Y334895D03*
X187325Y306455D03*
X187325Y334895D03*
X85725Y658745D03*
X85725Y630305D03*
D23*
X239780Y450850D03*
X268220Y450850D03*
D24*
X509588Y902970D03*
X509588Y887730D03*
D25*
X509588Y895350D03*
D24*
X544513Y902970D03*
X544513Y887730D03*
D25*
X544513Y895350D03*
D16*
X61555Y631825D02*
X46395Y631825D01*
X46395Y657225D02*
X61555Y657225D01*
X61555Y682625D02*
X46395Y682625D01*
D10*
X699556Y320675D02*
X716494Y320675D01*
X716494Y371475D02*
X699556Y371475D01*
D26*
X546100Y794000D03*
X558800Y794000D03*
X558800Y730000D03*
X546100Y730000D03*
X577850Y794000D03*
X590550Y794000D03*
X590550Y730000D03*
X577850Y730000D03*
X654050Y730000D03*
X641350Y730000D03*
X641350Y794000D03*
X654050Y794000D03*
X622300Y730000D03*
X609600Y730000D03*
X609600Y794000D03*
X622300Y794000D03*
D23*
X249170Y568325D03*
X220730Y568325D03*
X211070Y412750D03*
X182630Y412750D03*
X211070Y374650D03*
X182630Y374650D03*
D16*
X605195Y542925D02*
X620355Y542925D01*
X620355Y568325D02*
X605195Y568325D01*
D12*
X297150Y520700D03*
X325150Y520700D03*
D11*
X171450Y773400D03*
X171450Y801400D03*
D12*
X297150Y495300D03*
X325150Y495300D03*
D11*
X146050Y801400D03*
X146050Y773400D03*
D12*
X503525Y552450D03*
X531525Y552450D03*
X503525Y577850D03*
X531525Y577850D03*
D16*
X531455Y231775D02*
X516295Y231775D01*
X516295Y257175D02*
X531455Y257175D01*
X531455Y282575D02*
X516295Y282575D01*
D10*
X56094Y584200D02*
X39156Y584200D01*
X39156Y533400D02*
X56094Y533400D01*
M02*
